<?xml version="1.0" encoding="UTF-8"?>
<svg version="1.1" xmlns="http://www.w3.org/2000/svg" width="935" height="267">
<path d="M0 0 C1.0828125 0.2784375 2.165625 0.556875 3.28125 0.84375 C16.39848658 4.53695253 28.86526831 10.13630225 40 18 C41.42699219 18.98226562 41.42699219 18.98226562 42.8828125 19.984375 C48.80820436 24.22342819 54.08613586 28.8104498 59.25 33.9375 C59.82347168 34.50549316 60.39694336 35.07348633 60.98779297 35.65869141 C65 39.74234701 65 39.74234701 65 42 C65.66 42 66.32 42 67 42 C71 47.41176471 71 47.41176471 71 50 C71.66 50 72.32 50 73 50 C90.92755084 75.64379051 97.0799794 108.98665283 91.74609375 139.62890625 C86.63064175 162.7421789 76.22088419 187.07630465 58 203 C57.34 203 56.68 203 56 203 C56 203.66 56 204.32 56 205 C50.35420345 210.44625696 43.81025657 214.94849382 37.3125 219.3125 C36.40552368 219.92448242 36.40552368 219.92448242 35.48022461 220.54882812 C26.31657614 226.58932269 16.49971648 231.53706185 5.1875 229.375 C1.03241509 228.2224947 -2.37724982 226.31239373 -6 224 C-6 223.34 -6 222.68 -6 222 C-6.60457031 221.76023438 -7.20914063 221.52046875 -7.83203125 221.2734375 C-10.47481545 219.7210994 -11.26937489 218.31809563 -12.6875 215.625 C-13.10386719 214.85414063 -13.52023438 214.08328125 -13.94921875 213.2890625 C-16.66487584 207.37317009 -17.093799 200.24651377 -15.46875 193.9375 C-11.59150037 184.49724003 -5.40975109 179.27392137 3.375 174.625 C19.16333 166.06506205 29.01363591 152.13417018 34.66796875 135.32421875 C36.33973442 129.49314414 36.53615765 123.85036453 36.5 117.8125 C36.49500488 116.71478271 36.49000977 115.61706543 36.48486328 114.48608398 C36.20548653 101.40836214 32.58257485 90.76003479 25 80 C24.43796875 79.16984375 23.8759375 78.3396875 23.296875 77.484375 C13.68720885 64.32155498 -2.68481448 55.37661475 -18.5625 52.3125 C-39.45601413 50.36022333 -58.20127572 54.26774304 -74.9375 67.375 C-77.92931205 69.82868438 -77.92931205 69.82868438 -80 73 C-80.66 73 -81.32 73 -82 73 C-82.27070312 73.57234375 -82.54140625 74.1446875 -82.8203125 74.734375 C-84.02404373 77.04617669 -85.38927015 79.10993316 -86.875 81.25 C-96.48987538 95.69565014 -100.18086626 112.04245593 -97.4921875 129.25 C-93.28348804 147.82632864 -83.17607474 163.6685654 -67 174 C-65.30449098 174.87934785 -63.59551738 175.73314881 -61.875 176.5625 C-53.99319541 180.38873592 -49.6202434 184.93738622 -46 193 C-43.43084026 201.33765047 -45.12212431 209.27934466 -48.9609375 216.91015625 C-53.14376886 223.65905082 -60.33380999 227.57094579 -67.875 229.5625 C-80.77191623 231.49401943 -93.07483604 223.75577627 -103.03320312 216.39306641 C-105.37449079 214.61986418 -107.68350173 212.80539786 -110 211 C-110.99 210.34 -111.98 209.68 -113 209 C-113 208.34 -113 207.68 -113 207 C-113.57621094 206.74605469 -114.15242188 206.49210938 -114.74609375 206.23046875 C-132.61664644 196.47444778 -143.92977328 170.303003 -150 152 C-155.92754133 131.73723319 -156.46351982 108.43498323 -151 88 C-150.73316406 86.9275 -150.46632812 85.855 -150.19140625 84.75 C-146.1624191 70.1382066 -139.11818789 57.0201503 -130 45 C-129.24847656 44.00226562 -128.49695313 43.00453125 -127.72265625 41.9765625 C-123.80158717 36.91391635 -123.80158717 36.91391635 -122 35 C-121.34 35 -120.68 35 -120 35 C-120 34.34 -120 33.68 -120 33 C-118.42578125 31.4140625 -118.42578125 31.4140625 -116.3125 29.625 C-115.58417969 29.00753906 -114.85585937 28.39007813 -114.10546875 27.75390625 C-113.41066406 27.17511719 -112.71585938 26.59632812 -112 26 C-111.05125 25.195625 -110.1025 24.39125 -109.125 23.5625 C-107 22 -107 22 -105 22 C-105 21.34 -105 20.68 -105 20 C-79.34841137 -3.49469829 -32.09569283 -8.69883264 0 0 Z " fill="#01A914" transform="translate(170,19)"/>
<path d="M0 0 C12.57908372 -0.4028888 24.76644124 2.61696657 34.9453125 10.1171875 C35.6053125 7.8071875 36.2653125 5.4971875 36.9453125 3.1171875 C46.8453125 3.1171875 56.7453125 3.1171875 66.9453125 3.1171875 C68.17406659 5.57469568 68.07382481 7.17776375 68.07902527 9.92631531 C68.08542274 11.45033463 68.08542274 11.45033463 68.09194946 13.00514221 C68.09149628 14.12452682 68.09104309 15.24391144 68.09057617 16.3972168 C68.09393478 17.57310364 68.0972934 18.74899048 68.10075378 19.96051025 C68.10864612 23.19477691 68.11193285 26.4290051 68.11256957 29.66328025 C68.1132805 31.68927329 68.11541589 33.71525962 68.11806679 35.74125099 C68.12733314 42.82595876 68.13140105 49.9106477 68.13061523 56.99536133 C68.1300177 63.56846606 68.14050193 70.14148785 68.1563589 76.71457165 C68.16952067 82.37510073 68.17479537 88.03560304 68.17415982 93.69614726 C68.17390687 97.06856652 68.1775868 100.44085457 68.18733788 103.81326866 C68.3116715 151.30051975 68.3116715 151.30051975 54.9453125 166.1171875 C54.2853125 166.1171875 53.6253125 166.1171875 52.9453125 166.1171875 C52.58953125 166.99117188 52.58953125 166.99117188 52.2265625 167.8828125 C50.6726319 170.59271587 48.92601819 171.98249552 46.4453125 173.8671875 C45.65125 174.48078125 44.8571875 175.094375 44.0390625 175.7265625 C41.9453125 177.1171875 41.9453125 177.1171875 39.9453125 177.1171875 C39.9453125 177.7771875 39.9453125 178.4371875 39.9453125 179.1171875 C37.99401943 180.08977558 36.03379774 181.04445444 34.0703125 181.9921875 C32.97976563 182.52585938 31.88921875 183.05953125 30.765625 183.609375 C22.51151681 187.14716581 13.93174793 187.45028767 5.0703125 187.3671875 C4.00820557 187.35896973 2.94609863 187.35075195 1.85180664 187.34228516 C-16.02902064 187.08662877 -30.40335804 182.34149655 -45.0546875 172.1171875 C-46.0446875 171.4571875 -47.0346875 170.7971875 -48.0546875 170.1171875 C-48.0546875 169.4571875 -48.0546875 168.7971875 -48.0546875 168.1171875 C-48.7146875 168.1171875 -49.3746875 168.1171875 -50.0546875 168.1171875 C-50.0546875 167.4571875 -50.0546875 166.7971875 -50.0546875 166.1171875 C-50.7146875 166.1171875 -51.3746875 166.1171875 -52.0546875 166.1171875 C-52.0546875 165.4571875 -52.0546875 164.7971875 -52.0546875 164.1171875 C-52.7146875 164.1171875 -53.3746875 164.1171875 -54.0546875 164.1171875 C-53.27377088 157.71171194 -49.21259578 154.61366679 -44.8046875 150.2421875 C-44.04027344 149.44554687 -43.27585937 148.64890625 -42.48828125 147.828125 C-41.74191406 147.08046875 -40.99554688 146.3328125 -40.2265625 145.5625 C-39.5469043 144.87687988 -38.86724609 144.19125977 -38.16699219 143.48486328 C-36.0546875 142.1171875 -36.0546875 142.1171875 -33.29394531 142.40185547 C-32.55499023 142.63791504 -31.81603516 142.87397461 -31.0546875 143.1171875 C-31.0546875 143.7771875 -31.0546875 144.4371875 -31.0546875 145.1171875 C-30.3946875 145.1171875 -29.7346875 145.1171875 -29.0546875 145.1171875 C-29.0546875 145.7771875 -29.0546875 146.4371875 -29.0546875 147.1171875 C-27.7346875 147.4471875 -26.4146875 147.7771875 -25.0546875 148.1171875 C-25.0546875 148.7771875 -25.0546875 149.4371875 -25.0546875 150.1171875 C-24.1884375 150.3853125 -23.3221875 150.6534375 -22.4296875 150.9296875 C-19.0546875 152.1171875 -19.0546875 152.1171875 -16.3046875 153.6171875 C-6.50559651 158.13984488 5.7481852 158.73047963 15.9453125 155.1171875 C24.60357602 151.12308718 29.14446876 145.97198332 33.8203125 137.8671875 C35.40209469 132.59458019 35.18751268 127.5801471 34.9453125 122.1171875 C34.32785156 122.51550781 33.71039063 122.91382813 33.07421875 123.32421875 C32.22730469 123.85402344 31.38039063 124.38382812 30.5078125 124.9296875 C29.68410156 125.45175781 28.86039062 125.97382813 28.01171875 126.51171875 C19.59507962 130.91839223 12.07721687 131.61249966 2.6328125 131.5546875 C0.91288086 131.5846582 0.91288086 131.5846582 -0.84179688 131.61523438 C-12.29584116 131.60875218 -21.82124178 128.56770011 -31.3671875 122.3046875 C-32.39489258 121.64122314 -32.39489258 121.64122314 -33.44335938 120.96435547 C-47.86494289 111.45482138 -57.09530641 96.49121121 -60.65332031 79.60473633 C-63.72799821 60.54884031 -60.11515174 43.43519135 -50.0546875 27.1171875 C-49.3946875 27.1171875 -48.7346875 27.1171875 -48.0546875 27.1171875 C-47.64476562 26.24126953 -47.64476562 26.24126953 -47.2265625 25.34765625 C-41.28901564 14.04652539 -28.94535828 7.02333115 -17.1796875 3.1171875 C-11.31898205 1.3553432 -6.08960374 0.3473158 0 0 Z M-14.0546875 35.1171875 C-14.0546875 35.7771875 -14.0546875 36.4371875 -14.0546875 37.1171875 C-14.89 37.21 -14.89 37.21 -15.7421875 37.3046875 C-19.04536792 38.4652644 -20.77363483 40.51932196 -23.0546875 43.1171875 C-23.0546875 43.7771875 -23.0546875 44.4371875 -23.0546875 45.1171875 C-23.7146875 45.1171875 -24.3746875 45.1171875 -25.0546875 45.1171875 C-25.9828125 46.6640625 -25.9828125 46.6640625 -26.9296875 48.2421875 C-27.45175781 49.11230469 -27.45175781 49.11230469 -27.984375 50 C-31.9080656 57.76146097 -32.96614394 67.69725498 -30.45703125 76.12451172 C-28.97292323 79.95619114 -27.10135761 83.55987993 -25.0546875 87.1171875 C-24.3946875 87.1171875 -23.7346875 87.1171875 -23.0546875 87.1171875 C-22.8484375 87.6740625 -22.6421875 88.2309375 -22.4296875 88.8046875 C-18.84601024 94.83178107 -12.53353934 98.00633577 -6.0546875 100.1171875 C4.59024376 102.42693674 13.8134971 99.81132115 22.9453125 94.1171875 C29.67532049 88.99454064 33.30508648 82.03786557 35.9453125 74.1171875 C36.84718513 61.09178112 35.4397529 51.46142525 26.8671875 41.09375 C21.16576823 35.23009522 14.44417366 32.48807862 6.296875 31.81640625 C-1.17031588 31.79292452 -7.14932711 32.20966733 -14.0546875 35.1171875 Z " fill="#4A4A4A" transform="translate(380.0546875,63.8828125)"/>
<path d="M0 0 C7.33270163 5.51056945 12.53472833 13.04963825 17 21 C17.35964844 21.62777344 17.71929688 22.25554687 18.08984375 22.90234375 C22.97002041 32.49695521 24.87451222 45.33095087 24 56 C23.34 57.98 22.68 59.96 22 62 C-9.02 62 -40.04 62 -72 62 C-66.4848432 74.4091028 -61.70657261 79.99700343 -49 85 C-39.96087849 87.20956304 -31.75388992 86.01394234 -23.5390625 81.7109375 C-19.65336864 79.29690178 -16.75360302 76.99753711 -14.1875 73.1875 C-12 70 -12 70 -10.07739258 69.19262695 C-6.42687925 68.85413183 -3.64650992 71.27836674 -0.6875 73.1875 C0.59982312 73.99418785 1.88758185 74.80018098 3.17578125 75.60546875 C3.80436035 76.0029834 4.43293945 76.40049805 5.08056641 76.81005859 C8.00733149 78.62448915 10.99919558 80.31131963 14 82 C13.62422289 88.13769283 11.9580593 91.26963644 8 96 C7.34 96 6.68 96 6 96 C5.78601563 96.5671875 5.57203125 97.134375 5.3515625 97.71875 C1.2856093 104.58151494 -8.67188609 110.11966272 -16 113 C-17.28970703 113.55494141 -17.28970703 113.55494141 -18.60546875 114.12109375 C-34.03132442 119.88832828 -51.43135072 118.52001489 -66.3125 111.984375 C-68.25653015 111.05654243 -70.12714342 110.06319369 -72 109 C-73.00933594 108.43539062 -73.00933594 108.43539062 -74.0390625 107.859375 C-75.70030305 106.91954967 -77.35133777 105.96171963 -79 105 C-79 104.34 -79 103.68 -79 103 C-79.598125 102.731875 -80.19625 102.46375 -80.8125 102.1875 C-82.99847854 101.00082594 -84.41332594 99.90400887 -86 98 C-86 97.34 -86 96.68 -86 96 C-86.66 96 -87.32 96 -88 96 C-88 95.34 -88 94.68 -88 94 C-88.66 94 -89.32 94 -90 94 C-90.66 92.35 -91.32 90.7 -92 89 C-92.66 89 -93.32 89 -94 89 C-95.12918033 86.62690978 -96.25342065 84.25168006 -97.375 81.875 C-97.69210937 81.20984375 -98.00921875 80.5446875 -98.3359375 79.859375 C-105.00688304 65.68361574 -106.22582544 49.16467644 -102 34 C-101.74347656 33.04609375 -101.48695313 32.0921875 -101.22265625 31.109375 C-98.10073463 20.6583069 -92.51680768 11.86642664 -85 4 C-84.34 4 -83.68 4 -83 4 C-83 3.34 -83 2.68 -83 2 C-57.91599349 -18.36601156 -26.20366664 -18.77089582 0 0 Z M-63 25 C-63 25.66 -63 26.32 -63 27 C-63.66 27 -64.32 27 -65 27 C-65 27.66 -65 28.32 -65 29 C-65.66 29 -66.32 29 -67 29 C-68.32 31.64 -69.64 34.28 -71 37 C-50.87 37 -30.74 37 -10 37 C-13.67454094 27.81364765 -18.14089632 23.18641197 -27.09375 19.02734375 C-39.29678989 14.27434814 -52.88227688 16.79644071 -63 25 Z " fill="#4A4A4A" transform="translate(756,78)"/>
<path d="M0 0 C9.57 0 19.14 0 29 0 C29.33 29.04 29.66 58.08 30 88 C31.98 87.01 31.98 87.01 34 86 C34 85.34 34 84.68 34 84 C34.66 84 35.32 84 36 84 C36 83.34 36 82.68 36 82 C37.46470713 80.76831446 38.93360878 79.54103997 40.4296875 78.34765625 C42.16900144 76.94225147 42.16900144 76.94225147 43.875 74.625 C46.34278001 71.57656587 49.13602317 69.23621685 52.11328125 66.69921875 C54.36759487 64.6689363 56.13160612 62.38381288 58 60 C59.65002828 58.64613064 61.3174387 57.31321858 63 56 C65.70339225 53.42710858 68.10009944 50.87037512 70.38378906 47.91308594 C74.41119359 42.87586881 78.09995015 38.94512258 84.72070312 38.02929688 C90.07960465 37.67656617 95.39518601 37.94818666 100.75 38.25 C102.62222315 38.31031062 104.49463471 38.36504279 106.3671875 38.4140625 C110.91618217 38.54515004 115.45597181 38.75144867 120 39 C119.46602951 43.07074485 117.42786346 44.93555945 114.57202148 47.76855469 C114.11345764 48.22755661 113.6548938 48.68655853 113.18243408 49.1594696 C111.66899112 50.670827 110.14520986 52.17128789 108.62109375 53.671875 C107.56811838 54.7192536 106.51580457 55.76729769 105.46412659 56.815979 C102.69730031 59.57136295 99.9215829 62.31761824 97.1439209 65.06207275 C94.30992589 67.86535382 91.48442747 70.67716993 88.65820312 73.48828125 C83.11375205 79.00057896 77.55988091 84.50326105 72 90 C75.07586629 95.51083895 75.07586629 95.51083895 78.6640625 100.69140625 C79.14198242 101.31966309 79.61990234 101.94791992 80.11230469 102.59521484 C80.86108887 103.569021 80.86108887 103.569021 81.625 104.5625 C82.6860638 105.96135442 83.74593653 107.361113 84.8046875 108.76171875 C85.33545898 109.46345215 85.86623047 110.16518555 86.41308594 110.88818359 C88.89507269 114.19113519 91.33325973 117.52409837 93.75 120.875 C94.18006348 121.4635376 94.61012695 122.0520752 95.05322266 122.65844727 C98 126.76554103 98 126.76554103 98 129 C98.66 129 99.32 129 100 129 C101.38249511 130.86680868 102.68203634 132.79549792 103.9375 134.75 C106.72555107 139.09264947 106.72555107 139.09264947 109.75390625 143.265625 C111 145 111 145 111 147 C111.66 147 112.32 147 113 147 C114.6203364 149.03062341 116.10101986 151.04722813 117.5625 153.1875 C117.97435547 153.76564453 118.38621094 154.34378906 118.81054688 154.93945312 C121.13947883 158.31278338 122.3429479 160.98715157 123 165 C118.14394081 165.22359659 113.29091292 165.38627789 108.4309082 165.49438477 C106.78063749 165.53946707 105.1307228 165.60075755 103.48168945 165.67895508 C89.78396642 166.31192144 89.78396642 166.31192144 85.31689453 163.02685547 C81 157.59837963 81 157.59837963 81 154 C80.34 154 79.68 154 79 154 C75 148.58823529 75 148.58823529 75 146 C74.34 146 73.68 146 73 146 C71.9140625 144.59375 71.9140625 144.59375 70.625 142.5 C67.05842568 136.91831119 63.03828933 131.71412381 58.96337891 126.49804688 C58.45210449 125.83095703 57.94083008 125.16386719 57.4140625 124.4765625 C56.9495166 123.87924316 56.4849707 123.28192383 56.00634766 122.66650391 C55 121 55 121 55 118 C54.34 118 53.68 118 53 118 C51.61767557 116.37373596 50.28062485 114.7074998 49 113 C48.01 113.33 47.02 113.66 46 114 C46 114.66 46 115.32 46 116 C45.34 116 44.68 116 44 116 C44 116.66 44 117.32 44 118 C43.34 118 42.68 118 42 118 C41.731875 118.598125 41.46375 119.19625 41.1875 119.8125 C40.00082594 121.99847854 38.90400887 123.41332594 37 125 C36.34 125 35.68 125 35 125 C35 125.66 35 126.32 35 127 C34.34 127 33.68 127 33 127 C33 127.66 33 128.32 33 129 C32.34 129 31.68 129 31 129 C31 129.66 31 130.32 31 131 C30.34 131 29.68 131 29 131 C29 142.22 29 153.44 29 165 C19.1 165 9.2 165 -1 165 C-1.02311695 143.63432831 -1.04097817 122.26865961 -1.05181217 100.90297794 C-1.05697556 90.98324725 -1.06401907 81.06352445 -1.07543945 71.14379883 C-1.08538498 62.50103021 -1.09185311 53.85826732 -1.09408849 45.21549314 C-1.09539583 40.63627537 -1.09848308 36.05707395 -1.10573006 31.4778614 C-1.11248821 27.17288294 -1.11461738 22.86792767 -1.11310768 18.56294441 C-1.1133841 16.97821934 -1.11539044 15.39349354 -1.11920547 13.80877304 C-1.12413953 11.65459589 -1.12299937 9.5005077 -1.12025452 7.34632874 C-1.12117631 6.13785813 -1.1220981 4.92938753 -1.12304783 3.68429661 C-1 1 -1 1 0 0 Z " fill="#474747" transform="translate(796,28)"/>
<path d="M0 0 C0.77214844 0.31066406 1.54429687 0.62132813 2.33984375 0.94140625 C15.98710555 6.96782087 27.63526804 20.2487687 33 34 C34.13159257 37.30405932 35.12242119 40.62013565 36 44 C36.17273438 44.59756104 36.34546875 45.19512207 36.5234375 45.81079102 C37.5030034 50.31067187 37.22772269 54.9761586 37.25 59.5625 C37.270625 60.59697266 37.29125 61.63144531 37.3125 62.69726562 C37.38585648 77.34105195 32.29805353 89.19305526 24 101 C23.34 101.99 22.68 102.98 22 104 C21.34 104 20.68 104 20 104 C19.73703125 104.59167969 19.4740625 105.18335938 19.203125 105.79296875 C13.98374291 115.3674846 1.1818847 120.35307666 -8.6796875 123.671875 C-14.52746928 125.34709574 -20.19551687 125.53612405 -26.25 125.5 C-27.35029541 125.49500488 -28.45059082 125.49000977 -29.58422852 125.48486328 C-38.29670883 125.29852068 -45.17706761 124.03419978 -53 120 C-54.33998047 119.33097656 -54.33998047 119.33097656 -55.70703125 118.6484375 C-72.59498782 109.36135847 -83.3707105 94.14440633 -89 76 C-92.59616941 56.5806852 -89.08881228 37.07670418 -78.00390625 20.62890625 C-59.53849229 -3.59570115 -27.93555225 -12.30876823 0 0 Z M-49.9375 34.625 C-52.21856222 36.72741814 -52.21856222 36.72741814 -52 39 C-52.66 39 -53.32 39 -54 39 C-54.928125 40.546875 -54.928125 40.546875 -55.875 42.125 C-56.39707031 42.99511719 -56.39707031 42.99511719 -56.9296875 43.8828125 C-59.5746449 49.11480852 -60.38883874 53.99607552 -60.375 59.8125 C-60.37338867 60.51810059 -60.37177734 61.22370117 -60.37011719 61.95068359 C-60.23299343 67.79726439 -59.07335031 72.07841496 -56 77 C-55.360625 78.0725 -54.72125 79.145 -54.0625 80.25 C-51.90504804 83.12660262 -49.67980066 85.60228362 -47 88 C-46.34 88 -45.68 88 -45 88 C-45 88.66 -45 89.32 -45 90 C-35.58792104 94.40870801 -26.77603341 96.95302221 -16.4375 93.875 C-6.80171215 90.20422368 0.09670136 84.10342951 5.0625 75.06640625 C9.28427561 65.30355016 8.55321644 54.80966421 5 45 C1.50052203 36.83927404 -5.85230905 30.46701184 -14 27.0625 C-26.9078393 23.11270117 -39.81339946 25.57793143 -49.9375 34.625 Z " fill="#4A4A4A" transform="translate(553,70)"/>
<path d="M0 0 C4.25414623 -0.02465622 8.50825498 -0.04283899 12.76245117 -0.05493164 C14.21070073 -0.05997101 15.65894517 -0.06680253 17.10717773 -0.07543945 C19.18474588 -0.08752247 21.26224697 -0.09323211 23.33984375 -0.09765625 C24.59144287 -0.10289307 25.84304199 -0.10812988 27.13256836 -0.11352539 C30 0 30 0 31 1 C31.1048483 2.65936641 31.13964686 4.32319656 31.14717102 5.9858551 C31.15432632 7.06636139 31.16148163 8.14686768 31.16885376 9.26011658 C31.17154266 10.45633133 31.17423157 11.65254608 31.17700195 12.88500977 C31.18685875 14.76325439 31.18685875 14.76325439 31.19691467 16.67944336 C31.21672391 20.85010003 31.22833529 25.02071803 31.23828125 29.19140625 C31.24232934 30.63017229 31.24644628 32.06893813 31.25063133 33.50770378 C31.2697104 40.2801737 31.28392501 47.05263267 31.2922433 53.82512432 C31.30196933 61.61418357 31.32815462 69.4029551 31.36874419 77.19191319 C31.3990908 83.22525679 31.41373033 89.25851896 31.41702431 95.29193729 C31.41935757 98.88749401 31.42808644 102.48274444 31.45348549 106.07821846 C31.58693487 126.03556252 31.47055055 142.9636897 20 160 C19.34 160.99 18.68 161.98 18 163 C17.34 163 16.68 163 16 163 C15.73574219 163.59296875 15.47148438 164.1859375 15.19921875 164.796875 C10.28078459 173.83269541 -2.39947386 179.79377187 -11.83984375 182.94921875 C-17.43116316 184.19467852 -23.29179127 184.4958646 -29 184 C-30 183 -30 183 -30.11352539 180.31616211 C-30.10828857 179.14835205 -30.10305176 177.98054199 -30.09765625 176.77734375 C-30.09282227 174.88725586 -30.09282227 174.88725586 -30.08789062 172.95898438 C-30.07953403 171.61848891 -30.07106907 170.27799412 -30.0625 168.9375 C-30.0574866 167.59310058 -30.05292342 166.2486994 -30.04882812 164.90429688 C-30.03699488 161.60282059 -30.02050971 158.30143197 -30 155 C-27.40573068 153.94049169 -24.8822433 152.9659814 -22.1875 152.1875 C-18.75089407 150.90719583 -15.97949555 149.22745892 -12.9296875 147.21875 C-11 146 -11 146 -8.82421875 144.97265625 C-6.10791065 143.52434636 -5.92933343 141.9119114 -5 139 C-4.7525 138.30132812 -4.505 137.60265625 -4.25 136.8828125 C-1.30922069 128.48462544 -0.8394649 120.79096372 -0.79467773 111.93603516 C-0.77982834 110.12055679 -0.77982834 110.12055679 -0.76467896 108.2684021 C-0.73857111 104.96308305 -0.71667637 101.65778712 -0.69667697 98.35242891 C-0.67474222 94.89307904 -0.64739032 91.43377202 -0.62062073 87.97445679 C-0.57079476 81.42980935 -0.52581867 74.885138 -0.48259836 68.34044397 C-0.43313946 60.88697217 -0.37825354 53.4335434 -0.32291877 45.98011327 C-0.20925381 30.65344865 -0.10238133 15.3267444 0 0 Z " fill="#494949" transform="translate(606,67)"/>
<path d="M0 0 C9.84357655 7.71435034 16.7701562 16.41652502 19.21484375 28.8828125 C20.78965358 42.4367937 17.12260521 53.62859219 9.625 64.875 C8.965 64.875 8.305 64.875 7.625 64.875 C7.13 66.36 7.13 66.36 6.625 67.875 C-3.13497136 76.94581308 -14.32360628 80.52060842 -27.48730469 80.34814453 C-37.39646034 79.90513008 -46.87651112 76.50245229 -54.375 69.875 C-54.375 69.215 -54.375 68.555 -54.375 67.875 C-54.9628125 67.63523437 -55.550625 67.39546875 -56.15625 67.1484375 C-62.955513 63.24604359 -66.58332485 54.27546153 -68.71484375 47.078125 C-71.22370609 34.90494679 -69.17443398 23.55650781 -62.5625 13.0625 C-48.14060806 -6.81244561 -21.3304533 -14.05417717 0 0 Z " fill="#02AA14" transform="translate(164.375,100.125)"/>
<path d="M0 0 C1.28841797 -0.00386719 2.57683594 -0.00773438 3.90429688 -0.01171875 C5.15404297 -0.01042969 6.40378906 -0.00914063 7.69140625 -0.0078125 C8.81877197 -0.00668457 9.9461377 -0.00555664 11.10766602 -0.00439453 C14.60833938 0.13163867 17.98004633 0.57275068 21.4375 1.125 C21.4375 1.455 21.4375 1.785 21.4375 2.125 C20.55715088 2.14481934 19.67680176 2.16463867 18.76977539 2.18505859 C-10.70753705 2.6211653 -10.70753705 2.6211653 -39.48828125 8.41796875 C-42.4199395 9.0922129 -43.80635336 9.19343215 -46.5625 8.125 C-31.10536877 2.02268567 -16.51087715 -0.0497066 0 0 Z " fill="#3AAC47" transform="translate(139.5625,15.875)"/>
<path d="M0 0 C0.66 0.33 1.32 0.66 2 1 C1.67 2.32 1.34 3.64 1 5 C1.598125 4.484375 2.19625 3.96875 2.8125 3.4375 C3.8953125 2.7259375 3.8953125 2.7259375 5 2 C5.99 2.33 6.98 2.66 8 3 C6.47005208 4.23697917 4.94010417 5.47395833 3.41015625 6.7109375 C1.86733563 7.9666391 1.86733563 7.9666391 1 10 C0.34 10 -0.32 10 -1 10 C-1.226875 10.515625 -1.45375 11.03125 -1.6875 11.5625 C-3.4975553 14.92403127 -5.73996404 17.92911144 -8 21 C-8.33 19.68 -8.66 18.36 -9 17 C-8.34 17 -7.68 17 -7 17 C-7.33 14.36 -7.66 11.72 -8 9 C-7.01 9 -6.02 9 -5 9 C-5.33 8.01 -5.66 7.02 -6 6 C-5.11086182 3.33258547 -4.36379549 2.23874079 -2 0.6875 C-1.34 0.460625 -0.68 0.23375 0 0 Z " fill="#15AB26" transform="translate(89,82)"/>
<path d="M0 0 C4.06539336 1.2771811 7.78956267 2.84374294 11.625 4.6875 C18.03245807 7.43355346 23.23145342 7.21209788 30 6 C30 5.34 30 4.68 30 4 C33.3 3.34 36.6 2.68 40 2 C34.05787479 7.94212521 27.19318764 9.3981808 19 10 C12.8430955 9.5534344 8.14488047 7.28396626 3 4 C3 3.34 3 2.68 3 2 C2.01 1.67 1.02 1.34 0 1 C0 0.67 0 0.34 0 0 Z " fill="#4DB35D" transform="translate(161,239)"/>
<path d="M0 0 C6.64615385 1.47692308 6.64615385 1.47692308 8.4375 4.125 C8.7159375 5.053125 8.7159375 5.053125 9 6 C10.98 6 12.96 6 15 6 C15 6.99 15 7.98 15 9 C15.62648438 9.13277344 16.25296875 9.26554688 16.8984375 9.40234375 C17.71570313 9.57894531 18.53296875 9.75554687 19.375 9.9375 C20.18710938 10.11152344 20.99921875 10.28554687 21.8359375 10.46484375 C24 11 24 11 26 12 C26 12.66 26 13.32 26 14 C26.66 14 27.32 14 28 14 C28 14.66 28 15.32 28 16 C29.98 16.33 31.96 16.66 34 17 C28.77396379 18.74201207 24.15659075 16.02422157 19.3515625 13.7421875 C12.47088859 10.13426966 6.03914157 5.89439133 0 1 C0 0.67 0 0.34 0 0 Z " fill="#3DAB48" transform="translate(61,230)"/>
<path d="M0 0 C1.010625 0.7425 2.02125 1.485 3.0625 2.25 C2.7325 2.91 2.4025 3.57 2.0625 4.25 C0.7425 4.25 -0.5775 4.25 -1.9375 4.25 C-2.4325 2.27 -2.4325 2.27 -2.9375 0.25 C-3.7625 0.146875 -4.5875 0.04375 -5.4375 -0.0625 C-8.9375 -0.75 -8.9375 -0.75 -12.46875 -2.28125 C-17.60174418 -4.24751793 -22.50715936 -4.08355744 -27.9375 -3.9375 C-29.38576172 -3.91719727 -29.38576172 -3.91719727 -30.86328125 -3.89648438 C-33.22195425 -3.86145458 -35.57941771 -3.81234084 -37.9375 -3.75 C-26.22234327 -9.7577336 -10.90405576 -6.79808805 0 0 Z " fill="#5BBB66" transform="translate(163.9375,99.75)"/>
<path d="M0 0 C0 2.33333333 0 4.66666667 0 7 C-1.65 7.33 -3.3 7.66 -5 8 C-5.28875 8.969375 -5.5775 9.93875 -5.875 10.9375 C-7 14 -7 14 -9 15 C-9.69227032 17.80980673 -9.69227032 17.80980673 -10.125 21.0625 C-10.29257813 22.16722656 -10.46015625 23.27195313 -10.6328125 24.41015625 C-10.75398437 25.26480469 -10.87515625 26.11945313 -11 27 C-11.33 27 -11.66 27 -12 27 C-12.52494374 16.24837448 -10.6068609 9.46945489 -3.375 1.125 C-2 0 -2 0 0 0 Z " fill="#4AB25B" transform="translate(166,199)"/>
<path d="M0 0 C1.22993056 3.68979167 0.59260576 4.56332441 -1 8 C-1.268125 8.7425 -1.53625 9.485 -1.8125 10.25 C-2.4003125 11.11625 -2.4003125 11.11625 -3 12 C-3.804375 12.12375 -4.60875 12.2475 -5.4375 12.375 C-6.283125 12.58125 -7.12875 12.7875 -8 13 C-9.85916824 15.96707046 -9.85916824 15.96707046 -11 19 C-11.66 19 -12.32 19 -13 19 C-13 19.99 -13 20.98 -13 22 C-13.99 22.33 -14.98 22.66 -16 23 C-14.44272772 18.3894242 -11.95742724 14.83105524 -9.125 10.9375 C-8.69058594 10.32583984 -8.25617187 9.71417969 -7.80859375 9.08398438 C-5.42519549 5.77370901 -2.9961987 2.79412949 0 0 Z M-4 12 C-3.67 12.66 -3.34 13.32 -3 14 C-3.66 13.67 -4.32 13.34 -5 13 C-4.67 12.67 -4.34 12.34 -4 12 Z " fill="#3CB14C" transform="translate(47,56)"/>
<path d="M0 0 C0 0.66 0 1.32 0 2 C3.3 2 6.6 2 10 2 C10.495 2.99 10.495 2.99 11 4 C10.33581055 3.98952637 9.67162109 3.97905273 8.98730469 3.96826172 C-8.12989725 3.5322873 -8.12989725 3.5322873 -25 6 C-25 5.34 -25 4.68 -25 4 C-20.65446648 2.42101225 -16.51528228 1.50263936 -11.9375 0.875 C-10.15666016 0.62363281 -10.15666016 0.62363281 -8.33984375 0.3671875 C-5.51778429 0.05692599 -2.83365651 -0.0749928 0 0 Z " fill="#3CAC4A" transform="translate(144,67)"/>
<path d="M0 0 C4.43412526 3.69510439 5.63126932 7.46147925 6.22265625 13.13671875 C6.46730714 19.23171698 5.65137781 26.0970316 1.39453125 30.7578125 C0.93433594 31.16773438 0.47414063 31.57765625 0 32 C0.47228421 28.77272455 1.06435407 25.79936673 2.0625 22.6875 C3.88614849 15.5144826 3.64189159 10.52505576 0 4 C0 2.68 0 1.36 0 0 Z " fill="#53B35C" transform="translate(119,205)"/>
<path d="M0 0 C1.65 0 3.3 0 5 0 C5.69425957 2.47949846 6.06908294 4.73227919 6.3125 7.3125 C6.9226428 10.58508412 7.45412081 12.03410358 9.125 14.75 C9.74375 15.8225 10.3625 16.895 11 18 C10.67 18.99 10.34 19.98 10 21 C6.70810165 17.2429421 4.62860436 13.39878665 2.75 8.8125 C2.481875 8.18408203 2.21375 7.55566406 1.9375 6.90820312 C0 2.28687022 0 2.28687022 0 0 Z " fill="#2CA93D" transform="translate(23,177)"/>
<path d="M0 0 C0.33 0 0.66 0 1 0 C1.125 6.75 1.125 6.75 0 9 C-0.66 9 -1.32 9 -2 9 C-2.02708567 10.60407328 -2.04643483 12.2082785 -2.0625 13.8125 C-2.07410156 14.70582031 -2.08570313 15.59914063 -2.09765625 16.51953125 C-2.11009967 19.13413791 -2.11009967 19.13413791 -1 22 C-2.4375 24.6875 -2.4375 24.6875 -4 27 C-4.66 26.34 -5.32 25.68 -6 25 C-5.84980476 16.28867624 -2.72300715 8.18911745 0 0 Z " fill="#35AB43" transform="translate(23,94)"/>
<path d="M0 0 C0.66 0.99 1.32 1.98 2 3 C2.66 3 3.32 3 4 3 C3.25 7.75 3.25 7.75 1 10 C1 10.99 1 11.98 1 13 C0.34 13 -0.32 13 -1 13 C-1 12.34 -1 11.68 -1 11 C-1.66 11 -2.32 11 -3 11 C-3 10.34 -3 9.68 -3 9 C-3.66 9 -4.32 9 -5 9 C-4.5206753 4.68607774 -3.2542015 2.83430453 0 0 Z " fill="#616161" transform="translate(331,219)"/>
<path d="M0 0 C1.19882813 0.10828125 1.19882813 0.10828125 2.421875 0.21875 C9.13454274 0.7860177 15.70662836 1.06829619 22.44140625 0.83984375 C25.1384924 1.00866899 26.70276924 1.62166154 29 3 C19.89911216 5.90105422 8.60790266 4.68910114 0 1 C0 0.67 0 0.34 0 0 Z " fill="#41AE50" transform="translate(122,176)"/>
<path d="M0 0 C0.66 0.99 1.32 1.98 2 3 C0.68 3 -0.64 3 -2 3 C-2 3.99 -2 4.98 -2 6 C-2.99 6.495 -2.99 6.495 -4 7 C-4.6496875 8.11375 -4.6496875 8.11375 -5.3125 9.25 C-7.20560746 12.33506401 -9.31100031 14.58679515 -12 17 C-12.66 17 -13.32 17 -14 17 C-12.59445027 12.76815568 -10.57219402 10.07917939 -7.5625 6.8125 C-6.78003906 5.95269531 -5.99757813 5.09289062 -5.19140625 4.20703125 C-3 2 -3 2 0 0 Z " fill="#38AA43" transform="translate(114,101)"/>
<path d="M0 0 C2.5 2.25 2.5 2.25 5 5 C5 6.32 5 7.64 5 9 C-6.55 9 -18.1 9 -30 9 C-30 8.67 -30 8.34 -30 8 C-18.78 8 -7.56 8 4 8 C2.68 7.67 1.36 7.34 0 7 C-1.04449911 3.86650268 -0.93423645 3.01031744 0 0 Z " fill="#6A6A6A" transform="translate(914,184)"/>
<path d="M0 0 C1.49266205 4.51297043 1.04892705 9.20713435 0.9609375 13.89257812 C0.9100035 18.37901492 1.25918479 22.57247158 2 27 C1.34 27 0.68 27 0 27 C-2.54748246 22.15577153 -2.22816428 17.50839624 -2.125 12.1875 C-2.11597656 11.30384766 -2.10695313 10.42019531 -2.09765625 9.50976562 C-2.07419637 7.33972641 -2.03832865 5.16982753 -2 3 C-1.34 3 -0.68 3 0 3 C0 2.01 0 1.02 0 0 Z " fill="#38A343" transform="translate(71,125)"/>
<path d="M0 0 C1.98 0.66 3.96 1.32 6 2 C6 2.66 6 3.32 6 4 C6.66 4 7.32 4 8 4 C8 4.99 8 5.98 8 7 C10.97 7.495 10.97 7.495 14 8 C14.33 9.65 14.66 11.3 15 13 C12.0280615 11.87548273 9.66559313 10.77706209 7 9 C7 8.34 7 7.68 7 7 C6.401875 6.773125 5.80375 6.54625 5.1875 6.3125 C2.43648112 4.66188867 1.47515363 2.8027919 0 0 Z " fill="#4BB657" transform="translate(103,161)"/>
<path d="M0 0 C5.13074747 7.69612121 4.41490474 18.19903293 3 27 C1.9375 30.75 1.9375 30.75 1 33 C0.67 33 0.34 33 0 33 C-0.12529288 25.48242693 -0.12529288 25.48242693 0.49609375 23.08984375 C2.26348202 15.75997769 0.98491856 7.38688917 0 0 Z " fill="#39AA44" transform="translate(180,120)"/>
<path d="M0 0 C0.66 0 1.32 0 2 0 C2 0.66 2 1.32 2 2 C2.66 2 3.32 2 4 2 C4.33 2.99 4.66 3.98 5 5 C5.639375 5.495 6.27875 5.99 6.9375 6.5 C11.04289329 11.47623429 11.13653377 18.73082438 11 25 C9.03745852 22.05618778 8.21510693 19.7914341 7.1875 16.4375 C5.31617727 10.63993033 2.88991353 5.35344637 0 0 Z " fill="#40AE4D" transform="translate(196,99)"/>
<path d="M0 0 C0 0.66 0 1.32 0 2 C-0.66 2 -1.32 2 -2 2 C-2 2.66 -2 3.32 -2 4 C-2.94875 4.28875 -3.8975 4.5775 -4.875 4.875 C-8.05211578 5.76825109 -8.05211578 5.76825109 -10 8 C-10.598125 8.103125 -11.19625 8.20625 -11.8125 8.3125 C-14.28837416 8.90084962 -14.28837416 8.90084962 -16.4375 11.5 C-19.12123322 14.11827631 -20.3480039 14.68697176 -24 15 C-23.67 14.34 -23.34 13.68 -23 13 C-22.34 13 -21.68 13 -21 13 C-21 12.34 -21 11.68 -21 11 C-15.87660448 6.78000514 -6.82259658 0 0 0 Z " fill="#61BC69" transform="translate(86,28)"/>
<path d="M0 0 C-5.55007737 1.94739557 -11.14633779 3.67258669 -16.8125 5.25 C-18.07707031 5.60578125 -19.34164062 5.9615625 -20.64453125 6.328125 C-23.68796018 6.93751938 -25.16941609 7.11226975 -28 6 C-6.74774995 -2.39016685 -6.74774995 -2.39016685 0 0 Z " fill="#57B760" transform="translate(121,18)"/>
<path d="M0 0 C8.55445498 0.57996305 17.7718065 2.18120433 25 7 C18.62324508 7.347823 13.92809082 6.28082524 8 4 C7.22527344 3.71382812 6.45054687 3.42765625 5.65234375 3.1328125 C3.76392172 2.43339693 1.88131262 1.71831936 0 1 C0 0.67 0 0.34 0 0 Z " fill="#49B452" transform="translate(161,18)"/>
<path d="M0 0 C1.12377697 3.30435084 0.89554742 5.0506862 -0.4375 8.25 C-0.72496094 8.95640625 -1.01242188 9.6628125 -1.30859375 10.390625 C-1.53675781 10.92171875 -1.76492187 11.4528125 -2 12 C-2.99 12 -3.98 12 -5 12 C-5 12.99 -5 13.98 -5 15 C-5.66 15 -6.32 15 -7 15 C-7.33 15.99 -7.66 16.98 -8 18 C-10.0625 18.6875 -10.0625 18.6875 -12 19 C-11.63648438 18.55011719 -11.27296875 18.10023438 -10.8984375 17.63671875 C-6.56900081 12.09726001 -3.23141829 6.23365797 0 0 Z " fill="#4BB156" transform="translate(201,164)"/>
<path d="M0 0 C-7.91183036 5.89508929 -7.91183036 5.89508929 -12 7 C-14.3125 6.625 -14.3125 6.625 -16 6 C-15.01 5.67 -14.02 5.34 -13 5 C-12.7525 4.360625 -12.505 3.72125 -12.25 3.0625 C-11 1 -11 1 -7.625 -0.3125 C-4.27863544 -0.94715535 -3.08541065 -0.94465216 0 0 Z " fill="#27A836" transform="translate(167,171)"/>
<path d="M0 0 C4.17332873 1.35148277 8.25149202 2.8412072 12.3125 4.5 C13.36050781 4.9228125 14.40851563 5.345625 15.48828125 5.78125 C18 7 18 7 19 9 C12.58076669 8.70887831 8.37899794 7.54784971 3 4 C3 3.34 3 2.68 3 2 C2.01 1.67 1.02 1.34 0 1 C0 0.67 0 0.34 0 0 Z " fill="#33A543" transform="translate(161,239)"/>
<path d="M0 0 C0.66 0 1.32 0 2 0 C1.67 1.98 1.34 3.96 1 6 C-1.31 6 -3.62 6 -6 6 C-6.33 6.99 -6.66 7.98 -7 9 C-8.98 9 -10.96 9 -13 9 C-10.71141653 6.47517566 -8.37656871 4.96866677 -5.375 3.375 C-2.49917615 1.94660084 -2.49917615 1.94660084 0 0 Z " fill="#2DAD3A" transform="translate(179,190)"/>
<path d="M0 0 C1.15518918 0.90484792 2.29885406 1.8244206 3.4375 2.75 C4.07558594 3.26046875 4.71367188 3.7709375 5.37109375 4.296875 C7.21752131 6.22743235 7.46335846 7.43662488 8 10 C8.66 10.66 9.32 11.32 10 12 C10.625 14.625 10.625 14.625 11 17 C10.34 17 9.68 17 9 17 C7.59765625 15.171875 7.59765625 15.171875 6.0625 12.75 C4.55099456 10.3841654 3.09802784 8.11862954 1.30859375 5.953125 C0 4 0 4 0 0 Z " fill="#646464" transform="translate(860,157)"/>
<path d="M0 0 C3.13161332 1.56580666 3.45604434 4.17815522 4.6875 7.375 C5.14511719 8.53773437 5.60273438 9.70046875 6.07421875 10.8984375 C7 14 7 14 6 17 C4.0625 15.9375 4.0625 15.9375 2 14 C1.3125 10.75 1.3125 10.75 1 7 C0.814375 5.700625 0.62875 4.40125 0.4375 3.0625 C0.293125 2.051875 0.14875 1.04125 0 0 Z " fill="#37AD44" transform="translate(250,84)"/>
<path d="M0 0 C1.8125 0.375 1.8125 0.375 4 1 C4.7425 1.185625 5.485 1.37125 6.25 1.5625 C6.8275 1.706875 7.405 1.85125 8 2 C7.34 2 6.68 2 6 2 C5.773125 2.515625 5.54625 3.03125 5.3125 3.5625 C3.5024447 6.92403127 1.26003596 9.92911144 -1 13 C-1.33 11.68 -1.66 10.36 -2 9 C-1.34 9 -0.68 9 0 9 C-0.185625 7.700625 -0.37125 6.40125 -0.5625 5.0625 C-0.87890625 2.84765625 -0.87890625 2.84765625 -1 1 C-0.67 0.67 -0.34 0.34 0 0 Z " fill="#35B042" transform="translate(82,90)"/>
<path d="M0 0 C0.99 1.32 1.98 2.64 3 4 C-2.75 8 -2.75 8 -5 8 C-5 8.66 -5 9.32 -5 10 C-6.96466413 11.06775224 -8.96855359 12.06553465 -11 13 C-11.66 12.67 -12.32 12.34 -13 12 C-12.34 10.68 -11.68 9.36 -11 8 C-9.35 8.33 -7.7 8.66 -6 9 C-6 8.01 -6 7.02 -6 6 C-5.01 6 -4.02 6 -3 6 C-3 5.34 -3 4.68 -3 4 C-2.01 4 -1.02 4 0 4 C0 2.68 0 1.36 0 0 Z " fill="#676767" transform="translate(425,233)"/>
<path d="M0 0 C0.33 0 0.66 0 1 0 C1.33 7.59 1.66 15.18 2 23 C1.34 23 0.68 23 0 23 C0 24.65 0 26.3 0 28 C-0.66 28 -1.32 28 -2 28 C-1.84660156 27.07058594 -1.69320312 26.14117187 -1.53515625 25.18359375 C-0.81806202 20.16393411 -0.64854502 15.12412066 -0.4375 10.0625 C-0.39431641 9.09248047 -0.35113281 8.12246094 -0.30664062 7.12304688 C-0.20137907 4.74881399 -0.09924293 2.37449079 0 0 Z " fill="#6DC877" transform="translate(207,128)"/>
<path d="M0 0 C0.33 0.66 0.66 1.32 1 2 C0.67 2.99 0.34 3.98 0 5 C0.66 5.33 1.32 5.66 2 6 C1.51917969 6.50015625 1.03835938 7.0003125 0.54296875 7.515625 C-1.51965726 10.83671397 -1.56173088 13.94817916 -1.6875 17.75 C-1.72166016 18.44738281 -1.75582031 19.14476562 -1.79101562 19.86328125 C-1.87308295 21.57497108 -1.93822919 23.2874576 -2 25 C-2.33 25 -2.66 25 -3 25 C-3.19801866 6.87029144 -3.19801866 6.87029144 -2 1 C-1.34 0.67 -0.68 0.34 0 0 Z " fill="#828282" transform="translate(466,113)"/>
<path d="M0 0 C2.475 0.495 2.475 0.495 5 1 C5 1.66 5 2.32 5 3 C5.66 3 6.32 3 7 3 C7 3.66 7 4.32 7 5 C7.66 5.33 8.32 5.66 9 6 C5.67465243 7.10844919 3.37817425 6.84454356 0 6 C0 4.02 0 2.04 0 0 Z " fill="#585858" transform="translate(344,206)"/>
<path d="M0 0 C-9.71428571 8 -9.71428571 8 -13 8 C-12.34 6.68 -11.68 5.36 -11 4 C-10.34 4 -9.68 4 -9 4 C-8.67 3.01 -8.34 2.02 -8 1 C-5.07175348 0.02391783 -3.04386724 -0.08226668 0 0 Z " fill="#43AD51" transform="translate(214,233)"/>
<path d="M0 0 C3.01873478 2.39083795 3.92849653 3.59481364 4.609375 7.453125 C4.65578125 8.70609375 4.7021875 9.9590625 4.75 11.25 C4.80671875 12.51328125 4.8634375 13.7765625 4.921875 15.078125 C4.94765625 16.04234375 4.9734375 17.0065625 5 18 C3.03723564 15.05585347 2.28266038 12.94101364 1.375 9.5625 C0.98441406 8.14130859 0.98441406 8.14130859 0.5859375 6.69140625 C0 4 0 4 0 0 Z " fill="#47B154" transform="translate(18,159)"/>
<path d="M0 0 C1.05543251 3.18769143 0.97424908 4.94786631 -0.25 8.0625 C-0.62898438 9.06990234 -0.62898438 9.06990234 -1.015625 10.09765625 C-2.0785986 12.15189491 -3.29068058 13.45873165 -5 15 C-5 10.80434426 -4.2710189 8.96913969 -2.5 5.25 C-2.0359375 4.26515625 -1.571875 3.2803125 -1.09375 2.265625 C-0.7328125 1.51796875 -0.371875 0.7703125 0 0 Z " fill="#3BAB4A" transform="translate(30,79)"/>
<path d="M0 0 C2.8125 -0.1875 2.8125 -0.1875 6 0 C7.625 1.4375 7.625 1.4375 9 3 C9.680625 3.12375 10.36125 3.2475 11.0625 3.375 C12.0215625 3.684375 12.0215625 3.684375 13 4 C14.25 6.5625 14.25 6.5625 15 9 C11.32305352 7.62859834 8.04681411 5.96304199 4.6875 3.9375 C3.80449219 3.41027344 2.92148438 2.88304688 2.01171875 2.33984375 C1.34785156 1.89769531 0.68398437 1.45554687 0 1 C0 0.67 0 0.34 0 0 Z " fill="#53B662" transform="translate(167,75)"/>
<path d="M0 0 C6.66287016 1.92482916 6.66287016 1.92482916 9 5 C9.33 5.99 9.66 6.98 10 8 C10.66 8.33 11.32 8.66 12 9 C11.67 10.32 11.34 11.64 11 13 C10.18595703 11.96939453 10.18595703 11.96939453 9.35546875 10.91796875 C8.64003906 10.01691406 7.92460937 9.11585937 7.1875 8.1875 C6.47980469 7.29417969 5.77210938 6.40085937 5.04296875 5.48046875 C3.43588623 3.52923089 1.82959577 1.73725024 0 0 Z " fill="#58B562" transform="translate(184,86)"/>
<path d="M0 0 C6.875 3.75 6.875 3.75 8 6 C6.329375 6.2165625 6.329375 6.2165625 4.625 6.4375 C1.17857953 6.78372035 1.17857953 6.78372035 -1 8 C-1.33 7.01 -1.66 6.02 -2 5 C-1.34 4.01 -0.68 3.02 0 2 C0 1.34 0 0.68 0 0 Z " fill="#25AC30" transform="translate(210,38)"/>
<path d="M0 0 C1.46067199 0.45082469 2.91848032 0.91093537 4.375 1.375 C5.18710938 1.63023438 5.99921875 1.88546875 6.8359375 2.1484375 C9 3 9 3 11 5 C8.69 5.66 6.38 6.32 4 7 C4 6.34 4 5.68 4 5 C3.34 5 2.68 5 2 5 C1.34 3.35 0.68 1.7 0 0 Z " fill="#33B241" transform="translate(186,25)"/>
<path d="M0 0 C0 2.33333333 0 4.66666667 0 7 C-1.98 7.33 -3.96 7.66 -6 8 C-5.62403791 5.21788056 -5.32681541 3.4120716 -3.5625 1.1875 C-2 0 -2 0 0 0 Z " fill="#34B340" transform="translate(166,199)"/>
<path d="M0 0 C0.66 0 1.32 0 2 0 C3.65 3.3 5.3 6.6 7 10 C6.01 10.33 5.02 10.66 4 11 C4 10.01 4 9.02 4 8 C3.34 8 2.68 8 2 8 C0.23537317 4.91190305 0 3.76687864 0 0 Z " fill="#45B151" transform="translate(241,69)"/>
<path d="M0 0 C0.66 0 1.32 0 2 0 C1.42176904 4.06225548 0.10882263 6.84762346 -2.0625 10.3125 C-2.61035156 11.19550781 -3.15820312 12.07851562 -3.72265625 12.98828125 C-4.14417969 13.65214844 -4.56570312 14.31601563 -5 15 C-6 12 -6 12 -5.0625 9.8125 C-4.5365625 8.9153125 -4.5365625 8.9153125 -4 8 C-3.34 8 -2.68 8 -2 8 C-1.855625 7.236875 -1.71125 6.47375 -1.5625 5.6875 C-1 3 -1 3 0 0 Z " fill="#46B153" transform="translate(250,185)"/>
<path d="M0 0 C1.31225809 3.93677426 0.3393954 5.7794262 -0.9375 9.6875 C-1.50791016 11.45673828 -1.50791016 11.45673828 -2.08984375 13.26171875 C-2.39019531 14.16535156 -2.69054687 15.06898438 -3 16 C-3.33 16 -3.66 16 -4 16 C-3.40546697 4.29384966 -3.40546697 4.29384966 0 0 Z " fill="#51B259" transform="translate(260,159)"/>
<path d="M0 0 C0.99 0.495 0.99 0.495 2 1 C2 1.66 2 2.32 2 3 C2.66 3 3.32 3 4 3 C5.38938077 4.96147874 6.7260411 6.96166576 8 9 C7.67 9.66 7.34 10.32 7 11 C4.625 10.5625 4.625 10.5625 2 9 C0.92998438 6.05880129 0.42656082 3.09415757 0 0 Z " fill="#3DB14D" transform="translate(233,58)"/>
<path d="M0 0 C0 3.75366417 -1.11420063 5.78715662 -3 9 C-3.99 9.33 -4.98 9.66 -6 10 C-6.66 9.34 -7.32 8.68 -8 8 C-5.33333333 5.33333333 -2.66666667 2.66666667 0 0 Z " fill="#45B353" transform="translate(60,43)"/>
<path d="M0 0 C6.64615385 1.47692308 6.64615385 1.47692308 8.4375 4.125 C8.7159375 5.053125 8.7159375 5.053125 9 6 C10.32 6 11.64 6 13 6 C13 6.99 13 7.98 13 9 C7.97290493 7.42903279 3.97133531 4.38006951 0 1 C0 0.67 0 0.34 0 0 Z " fill="#55B761" transform="translate(61,230)"/>
<path d="M0 0 C0 3 0 3 -2 6 C-2.66 6 -3.32 6 -4 6 C-4.33 6.99 -4.66 7.98 -5 9 C-7 5.25 -7 5.25 -7 3 C-4.69 2.01 -2.38 1.02 0 0 Z " fill="#696969" transform="translate(626,224)"/>
<path d="M0 0 C0.66 0 1.32 0 2 0 C0.5129879 4.59621922 -1.79812128 7.46972347 -5 11 C-5.33 11 -5.66 11 -6 11 C-6.1875 8.625 -6.1875 8.625 -6 6 C-5.01 5.34 -4.02 4.68 -3 4 C-3 3.34 -3 2.68 -3 2 C-2.01 2 -1.02 2 0 2 C0 1.34 0 0.68 0 0 Z " fill="#45B252" transform="translate(241,202)"/>
<path d="M0 0 C3.375 0.3125 3.375 0.3125 7 1 C7.66 1.99 8.32 2.98 9 4 C8.67 4.66 8.34 5.32 8 6 C2.33846154 4.52307692 2.33846154 4.52307692 0.625 1.875 C0.41875 1.25625 0.2125 0.6375 0 0 Z " fill="#11A722" transform="translate(180,81)"/>
<path d="M0 0 C3.75 -0.375 3.75 -0.375 7 0 C5.40311734 3.19376532 2.16616965 4.57591496 -1 6 C-1.99 6 -2.98 6 -4 6 C-2.4375 3 -2.4375 3 0 0 Z " fill="#45B353" transform="translate(101,77)"/>
<path d="M0 0 C-10.37357631 4.40774487 -10.37357631 4.40774487 -16 5 C-16 4.34 -16 3.68 -16 3 C-14.08802961 2.29954544 -12.17019565 1.615081 -10.25 0.9375 C-9.18265625 0.55464844 -8.1153125 0.17179688 -7.015625 -0.22265625 C-4.07719958 -0.98010011 -2.77651052 -1.07151741 0 0 Z " fill="#52B45E" transform="translate(113,244)"/>
<path d="M0 0 C0 1.32 0 2.64 0 4 C0.804375 4.2475 1.60875 4.495 2.4375 4.75 C5 6 5 6 5.8125 8.125 C5.874375 8.74375 5.93625 9.3625 6 10 C4.68 9.34 3.36 8.68 2 8 C2 7.34 2 6.68 2 6 C1.38125 5.731875 0.7625 5.46375 0.125 5.1875 C-2 4 -2 4 -4 1 C-2 0 -2 0 0 0 Z " fill="#43B255" transform="translate(55,220)"/>
<path d="M0 0 C0.33 0.66 0.66 1.32 1 2 C0.2578125 4.20703125 0.2578125 4.20703125 -0.875 6.8125 C-2.3455877 10.21130585 -3.3829229 13.34348995 -4 17 C-4.33 17 -4.66 17 -5 17 C-5.33 14.36 -5.66 11.72 -6 9 C-5.01 9 -4.02 9 -3 9 C-2.87625 7.700625 -2.7525 6.40125 -2.625 5.0625 C-2.4140625 2.84765625 -2.4140625 2.84765625 -2 1 C-1.34 0.67 -0.68 0.34 0 0 Z " fill="#55BA59" transform="translate(77,107)"/>
<path d="M0 0 C1.64637489 5.65709266 0.40351885 10.71225854 -2 16 C-2.33 16 -2.66 16 -3 16 C-3.37851209 10.06997733 -2.10575375 5.52760359 0 0 Z " fill="#31A641" transform="translate(99,118)"/>
<path d="M0 0 C2.02350324 3.03525486 2.32124018 4.19426202 2.625 7.6875 C2.69976562 8.49574219 2.77453125 9.30398437 2.8515625 10.13671875 C2.90054687 10.75160156 2.94953125 11.36648437 3 12 C2.01 12 1.02 12 0 12 C0 8.04 0 4.08 0 0 Z " fill="#4AB458" transform="translate(257,100)"/>
<path d="M0 0 C5.28798182 0.41474367 8.11690718 1.35224614 12 5 C10.35 5.33 8.7 5.66 7 6 C6.67 4.68 6.34 3.36 6 2 C3.03 1.505 3.03 1.505 0 1 C0 0.67 0 0.34 0 0 Z " fill="#2FAB42" transform="translate(155,98)"/>
<path d="M0 0 C3.37503669 1.1858237 5.64722731 2.27573689 8 5 C5.39417629 5.93065133 4.35801776 6.14917407 1.75 5.0625 C1.1725 4.711875 0.595 4.36125 0 4 C0 2.68 0 1.36 0 0 Z " fill="#26A938" transform="translate(202,33)"/>
<path d="M0 0 C0.66 0.66 1.32 1.32 2 2 C1.70608813 6.40867812 0.46007056 9.36337396 -2 13 C-3.18414294 9.44757118 -2.69535532 8.30169438 -1.5625 4.8125 C-1.27503906 3.91144531 -0.98757812 3.01039063 -0.69140625 2.08203125 C-0.46324219 1.39496094 -0.23507813 0.70789063 0 0 Z " fill="#38AD42" transform="translate(122,224)"/>
<path d="M0 0 C2 2 2 2 2 5 C0.625 6.6875 0.625 6.6875 -1 8 C-1.66 8 -2.32 8 -3 8 C-3.33 8.66 -3.66 9.32 -4 10 C-4 8.35 -4 6.7 -4 5 C-3.01 5 -2.02 5 -1 5 C-1.33 4.01 -1.66 3.02 -2 2 C-1.34 1.34 -0.68 0.68 0 0 Z " fill="#35AE40" transform="translate(229,214)"/>
<path d="M0 0 C3.82669043 3.42388092 5.72278474 6.00724943 7 11 C6.34 11.66 5.68 12.32 5 13 C4.731875 12.29875 4.46375 11.5975 4.1875 10.875 C3.00782057 7.91073437 3.00782057 7.91073437 1.375 4.8125 C0 2 0 2 0 0 Z " fill="#4DAE58" transform="translate(173,109)"/>
<path d="M0 0 C0.93065133 2.60582371 1.14917407 3.64198224 0.0625 6.25 C-0.4634375 7.11625 -0.4634375 7.11625 -1 8 C-1.66 8 -2.32 8 -3 8 C-3 8.66 -3 9.32 -3 10 C-4.98 10.99 -4.98 10.99 -7 12 C-6.67 11.01 -6.34 10.02 -6 9 C-5.34 9 -4.68 9 -4 9 C-4 8.01 -4 7.02 -4 6 C-3.34 6 -2.68 6 -2 6 C-1.34 4.02 -0.68 2.04 0 0 Z " fill="#0AA21A" transform="translate(38,69)"/>
<path d="M0 0 C1.875 0.625 1.875 0.625 4 2 C5.25 5.125 5.25 5.125 6 8 C1.3697479 6.53781513 1.3697479 6.53781513 -0.375 4 C-1 2 -1 2 0 0 Z " fill="#646464" transform="translate(490,179)"/>
<path d="M0 0 C0.6875 1.75 0.6875 1.75 1 4 C-0.4375 6.25 -0.4375 6.25 -2 8 C-2.12375 7.195625 -2.2475 6.39125 -2.375 5.5625 C-2.684375 4.2940625 -2.684375 4.2940625 -3 3 C-3.66 2.67 -4.32 2.34 -5 2 C-2 0 -2 0 0 0 Z " fill="#696969" transform="translate(632,211)"/>
<path d="M0 0 C2.97 0 5.94 0 9 0 C9 0.66 9 1.32 9 2 C11.31 2 13.62 2 16 2 C16 2.33 16 2.66 16 3 C10.22192976 3.2358396 5.48675196 2.86783046 0 1 C0 0.67 0 0.34 0 0 Z " fill="#8A8A8A" transform="translate(507,192)"/>
<path d="M0 0 C0.68835938 0.50660156 0.68835938 0.50660156 1.390625 1.0234375 C5.98192426 4.36308951 5.98192426 4.36308951 11 7 C8.50907189 8.24546405 7.58919267 7.7767578 5 7 C5 6.34 5 5.68 5 5 C3.35 4.67 1.7 4.34 0 4 C0 2.68 0 1.36 0 0 Z " fill="#4EB563" transform="translate(96,188)"/>
<path d="M0 0 C0.33 0.66 0.66 1.32 1 2 C3.02463255 2.65213292 3.02463255 2.65213292 5 3 C3.87926138 3.83905565 2.75325453 4.67107831 1.625 5.5 C0.99851562 5.9640625 0.37203125 6.428125 -0.2734375 6.90625 C-2 8 -2 8 -4 8 C-3.34 6.68 -2.68 5.36 -2 4 C-1.34 4 -0.68 4 0 4 C0 2.68 0 1.36 0 0 Z " fill="#686868" transform="translate(753,177)"/>
<path d="M0 0 C2.475 0.495 2.475 0.495 5 1 C5.33 2.65 5.66 4.3 6 6 C3.5625 5.25 3.5625 5.25 1 4 C0.1875 1.875 0.1875 1.875 0 0 Z " fill="#35AB41" transform="translate(112,168)"/>
<path d="M0 0 C2.97 0 5.94 0 9 0 C9.66 1.32 10.32 2.64 11 4 C7.37 3.01 3.74 2.02 0 1 C0 0.67 0 0.34 0 0 Z " fill="#4CB357" transform="translate(155,71)"/>
<path d="M0 0 C0.66 0.33 1.32 0.66 2 1 C-0.23407889 4.35111834 -1.26215824 5.81553956 -5.25 6.8125 C-6.61125 6.9053125 -6.61125 6.9053125 -8 7 C-7.236875 6.401875 -6.47375 5.80375 -5.6875 5.1875 C-3.6516425 3.53040668 -1.8021721 1.89702326 0 0 Z " fill="#818181" transform="translate(597,211)"/>
<path d="M0 0 C0.99 0 1.98 0 3 0 C4.41377341 2.63904371 5.37240135 5.07120629 6 8 C5.01 8.495 5.01 8.495 4 9 C0 2.25 0 2.25 0 0 Z " fill="#54AE60" transform="translate(28,189)"/>
<path d="M0 0 C0.33 1.32 0.66 2.64 1 4 C-0.75 5.5625 -0.75 5.5625 -3 7 C-4.32 6.67 -5.64 6.34 -7 6 C-4.69 4.02 -2.38 2.04 0 0 Z " fill="#52B75B" transform="translate(188,183)"/>
<path d="M0 0 C2.5625 2.25 2.5625 2.25 5 5 C4.8125 7.3125 4.8125 7.3125 4 9 C3.34 8.34 2.68 7.68 2 7 C1.34 7 0.68 7 0 7 C-1.04449911 3.86650268 -0.93423645 3.01031744 0 0 Z " fill="#818181" transform="translate(914,184)"/>
<path d="M0 0 C1.32 0.33 2.64 0.66 4 1 C0.535 3.97 0.535 3.97 -3 7 C-3.66 6.01 -4.32 5.02 -5 4 C-3.68 4 -2.36 4 -1 4 C-0.67 2.68 -0.34 1.36 0 0 Z " fill="#37AB43" transform="translate(220,224)"/>
<path d="M0 0 C0 0.66 0 1.32 0 2 C-0.99 2.33 -1.98 2.66 -3 3 C-3.45375 3.515625 -3.9075 4.03125 -4.375 4.5625 C-6 6 -6 6 -8.6875 6.1875 C-9.8321875 6.0946875 -9.8321875 6.0946875 -11 6 C-8.24029211 2.78034079 -4.3526723 0 0 0 Z " fill="#54B35D" transform="translate(177,193)"/>
<path d="M0 0 C0.33 1.32 0.66 2.64 1 4 C1.66 4 2.32 4 3 4 C3.33 6.31 3.66 8.62 4 11 C3.34 11 2.68 11 2 11 C0.19769832 7.17010894 -0.19622241 4.21878192 0 0 Z " fill="#35AC3E" transform="translate(69,141)"/>
<path d="M0 0 C3.72433382 1.2125738 7.37802806 2.50859979 11 4 C9.25 5.125 9.25 5.125 7 6 C4.75 5.125 4.75 5.125 3 4 C3 3.34 3 2.68 3 2 C2.01 1.67 1.02 1.34 0 1 C0 0.67 0 0.34 0 0 Z " fill="#3EAA51" transform="translate(161,239)"/>
<path d="M0 0 C0.66 0 1.32 0 2 0 C1.74438677 2.3431213 1.40729228 4.67843403 1 7 C0.01 7.495 0.01 7.495 -1 8 C-1.625 5.125 -1.625 5.125 -2 2 C-1.34 1.34 -0.68 0.68 0 0 Z " fill="#707070" transform="translate(768,160)"/>
<path d="M0 0 C3 1 3 1 4.25 3.3125 C5.04631835 6.16597407 4.8214856 7.24802325 4 10 C3.32845067 8.71086513 2.66291141 7.41859796 2 6.125 C1.62875 5.40570313 1.2575 4.68640625 0.875 3.9453125 C0 2 0 2 0 0 Z " fill="#49AC54" transform="translate(98,151)"/>
<path d="M0 0 C0.33 0 0.66 0 1 0 C1.36205464 1.95689037 1.71441421 3.91557668 2.0625 5.875 C2.25972656 6.96554688 2.45695312 8.05609375 2.66015625 9.1796875 C3 12 3 12 2 14 C-0.28062828 10.57905758 -0.21925007 9.31812778 -0.125 5.3125 C-0.10695313 4.31863281 -0.08890625 3.32476562 -0.0703125 2.30078125 C-0.04710938 1.54152344 -0.02390625 0.78226563 0 0 Z " fill="#129F23" transform="translate(18,148)"/>
<path d="M0 0 C2.64752004 2.57784846 4.94432065 4.91648098 7 8 C6.01 8.495 6.01 8.495 5 9 C5 8.34 5 7.68 5 7 C3.68 6.67 2.36 6.34 1 6 C0.67 4.02 0.34 2.04 0 0 Z " fill="#3CAB4A" transform="translate(82,174)"/>
<path d="M0 0 C0.99 0 1.98 0 3 0 C2.5020163 3.73487777 2.12508244 5.81237635 0 9 C0 6.03 0 3.06 0 0 Z " fill="#37B142" transform="translate(253,175)"/>
<path d="M0 0 C0.33 0 0.66 0 1 0 C1.36923077 6.52307692 1.36923077 6.52307692 -0.5 8.9375 C-0.995 9.288125 -1.49 9.63875 -2 10 C-3 8 -3 8 -2.44140625 6.0546875 C-2.15136719 5.33539063 -1.86132812 4.61609375 -1.5625 3.875 C-1.27503906 3.15054688 -0.98757812 2.42609375 -0.69140625 1.6796875 C-0.46324219 1.12539062 -0.23507813 0.57109375 0 0 Z " fill="#57BA65" transform="translate(23,94)"/>
<path d="M0 0 C-1.32 0.33 -2.64 0.66 -4 1 C-4 1.66 -4 2.32 -4 3 C-6.31 3.33 -8.62 3.66 -11 4 C-4.45384615 -1.48461538 -4.45384615 -1.48461538 0 0 Z " fill="#49B355" transform="translate(126,97)"/>
<path d="M0 0 C-1.39332574 3.36720387 -2.9789286 4.9859524 -6 7 C-6.33 6.01 -6.66 5.02 -7 4 C-2.25 0 -2.25 0 0 0 Z " fill="#717171" transform="translate(493,75)"/>
<path d="M0 0 C0 0.66 0 1.32 0 2 C-5.2734375 5.22265625 -5.2734375 5.22265625 -7 6 C-7.66 5.67 -8.32 5.34 -9 5 C-8.01 4.67 -7.02 4.34 -6 4 C-6 3.34 -6 2.68 -6 2 C-2.25 0 -2.25 0 0 0 Z " fill="#51AF5C" transform="translate(71,37)"/>
<path d="M0 0 C0.66 0.66 1.32 1.32 2 2 C0.35 3.65 -1.3 5.3 -3 7 C-3.33 6.01 -3.66 5.02 -4 4 C-3.34 4 -2.68 4 -2 4 C-2 3.01 -2 2.02 -2 1 C-1.34 0.67 -0.68 0.34 0 0 Z " fill="#3FAA4F" transform="translate(117,236)"/>
<path d="M0 0 C1.98 0.495 1.98 0.495 4 1 C2.02 3.97 2.02 3.97 0 7 C-0.93423645 3.98968256 -1.04449911 3.13349732 0 0 Z " fill="#7A7A7A" transform="translate(436,221)"/>
<path d="M0 0 C1.98 0 3.96 0 6 0 C6 1.98 6 3.96 6 6 C3.97945196 4.35830472 1.97956942 2.69088222 0 1 C0 0.67 0 0.34 0 0 Z " fill="#52BD5C" transform="translate(45,215)"/>
<path d="M0 0 C2.15377564 2.62198774 3.40072174 4.64404172 4 8 C2.68 7.67 1.36 7.34 0 7 C0 4.69 0 2.38 0 0 Z " fill="#3FAC4C" transform="translate(78,166)"/>
<path d="M0 0 C1.99097846 2.98646769 2.94124926 5.59687262 4 9 C2.68 8.67 1.36 8.34 0 8 C0 5.36 0 2.72 0 0 Z " fill="#5BBE67" transform="translate(74,157)"/>
<path d="M0 0 C0.66 0.99 1.32 1.98 2 3 C0.68 3 -0.64 3 -2 3 C-2 3.99 -2 4.98 -2 6 C-3.32 5.67 -4.64 5.34 -6 5 C-4.02 3.35 -2.04 1.7 0 0 Z " fill="#47B352" transform="translate(114,101)"/>
<path d="M0 0 C1.32 0.33 2.64 0.66 4 1 C4 2.65 4 4.3 4 6 C2.68 5.34 1.36 4.68 0 4 C0 2.68 0 1.36 0 0 Z " fill="#585858" transform="translate(769,98)"/>
<path d="M0 0 C4.875 4.625 4.875 4.625 6 8 C5.01 8 4.02 8 3 8 C3 7.01 3 6.02 3 5 C2.34 5 1.68 5 1 5 C0.67 3.35 0.34 1.7 0 0 Z " fill="#7D7D7D" transform="translate(763,86)"/>
<path d="M0 0 C1.98 1.65 3.96 3.3 6 5 C3 6 3 6 0 5 C0 3.35 0 1.7 0 0 Z " fill="#38AF4A" transform="translate(227,52)"/>
<path d="M0 0 C-5.41538462 3.07692308 -5.41538462 3.07692308 -8.375 2.6875 C-9.179375 2.3471875 -9.179375 2.3471875 -10 2 C-6.70021068 -0.19985954 -3.76967739 -1.88483869 0 0 Z " fill="#5CB465" transform="translate(161,175)"/>
<path d="M0 0 C4 2 4 2 5.25 5.125 C5.4975 6.07375 5.745 7.0225 6 8 C5.34 8 4.68 8 4 8 C2.68 5.36 1.36 2.72 0 0 Z " fill="#7F7F7F" transform="translate(865,166)"/>
<path d="M0 0 C0.66 0.33 1.32 0.66 2 1 C2 1.66 2 2.32 2 3 C0.25 4.125 0.25 4.125 -2 5 C-4.25 4.125 -4.25 4.125 -6 3 C-4.03533587 1.93224776 -2.03144641 0.93446535 0 0 Z " fill="#878787" transform="translate(733,159)"/>
<path d="M0 0 C0.66 0.99 1.32 1.98 2 3 C0.35 4.32 -1.3 5.64 -3 7 C-2.25 2.25 -2.25 2.25 0 0 Z " fill="#6D6D6D" transform="translate(876,105)"/>
<path d="M0 0 C0.66 0.33 1.32 0.66 2 1 C0.25 3.0625 0.25 3.0625 -2 5 C-4.25 4.75 -4.25 4.75 -6 4 C-4.02 2.68 -2.04 1.36 0 0 Z " fill="#858585" transform="translate(353,71)"/>
<path d="M0 0 C1.65 1.65 3.3 3.3 5 5 C3.02 5.33 1.04 5.66 -1 6 C-0.67 4.02 -0.34 2.04 0 0 Z " fill="#48B854" transform="translate(219,44)"/>
</svg>
