<?xml version="1.0" encoding="UTF-8"?>
<svg version="1.1" xmlns="http://www.w3.org/2000/svg" width="300" height="300">
<path d="M0 0 C0 3.96 0 7.92 0 12 C0.82242188 11.66226563 1.64484375 11.32453125 2.4921875 10.9765625 C9.27914443 8.26491458 15.76611263 6.09406423 23 5 C23 5.99 23 6.98 23 8 C22.34 8 21.68 8 21 8 C20.73703125 8.58523437 20.4740625 9.17046875 20.203125 9.7734375 C18.94609632 12.09975681 17.56160982 13.70730492 15.75 15.625 C11.47276957 20.42231295 6.54940411 26.06555769 5.63671875 32.6015625 C6.09078303 35.5993632 6.89304778 36.34056055 9.25 38.1875 C9.85328125 38.67605469 10.4565625 39.16460937 11.078125 39.66796875 C12.98600332 40.99029905 14.89904366 42.01924383 17 43 C16.505 43.99 16.505 43.99 16 45 C15.175 44.68546875 14.35 44.3709375 13.5 44.046875 C6.21453242 41.34734907 -0.94086116 39.09113126 -8.58007812 37.60839844 C-13.46682466 36.5392676 -15.67333443 34.63110252 -19 31 C-22.63434642 28.43423362 -25.99235826 27.30945579 -30.3125 26.3125 C-31.38113281 26.06113281 -32.44976562 25.80976563 -33.55078125 25.55078125 C-34.35902344 25.36902344 -35.16726562 25.18726563 -36 25 C-36 24.34 -36 23.68 -36 23 C-35.13117188 23.0721875 -34.26234375 23.144375 -33.3671875 23.21875 C-31.63855469 23.35796875 -31.63855469 23.35796875 -29.875 23.5 C-28.16957031 23.63921875 -28.16957031 23.63921875 -26.4296875 23.78125 C-23.03345562 24.03991735 -23.03345562 24.03991735 -19.7578125 23.96875 C-17 24 -17 24 -14 25 C-12.98002159 21.63407123 -12.99870436 20.00445376 -14 16.5625 C-15.082808 12.7049965 -15.23552524 10.78894408 -14 7 C-9.93537838 2.14503528 -6.4273662 -1.60684155 0 0 Z " fill="#22A2E3" transform="translate(277,118)"/>
<path d="M0 0 C3.71209043 4.0495532 4.31302496 7.82381683 4.2578125 13.20703125 C4.25136719 14.31884766 4.24492187 15.43066406 4.23828125 16.57617188 C4.22152344 17.72666016 4.20476562 18.87714844 4.1875 20.0625 C4.17847656 21.23232422 4.16945313 22.40214844 4.16015625 23.60742188 C4.13663732 26.48849053 4.10376852 29.36913989 4.0625 32.25 C1.7525 32.25 -0.5575 32.25 -2.9375 32.25 C-3.2675 31.59 -3.5975 30.93 -3.9375 30.25 C-4.9275 30.91 -5.9175 31.57 -6.9375 32.25 C-11.97210297 33.00084346 -17.29551199 33.31621178 -21.625 30.3125 C-24.33748434 26.72029101 -24.70917577 24.80004975 -24.39453125 20.40234375 C-23.70092073 17.13585318 -22.40913225 15.45442876 -19.9375 13.25 C-16.38801409 11.60289267 -12.9739364 10.77421819 -9.125 10.125 C-8.14917969 9.95742187 -7.17335937 9.78984375 -6.16796875 9.6171875 C-5.06388672 9.43542969 -5.06388672 9.43542969 -3.9375 9.25 C-4.5975 7.93 -5.2575 6.61 -5.9375 5.25 C-11.15729128 5.0700072 -15.01012981 5.27905192 -19.9375 7.25 C-20.5975 5.27 -21.2575 3.29 -21.9375 1.25 C-15.04750691 -3.27770974 -7.2990347 -4.3483611 0 0 Z M-15.9375 18.25 C-16.61551034 21.15073181 -16.61551034 21.15073181 -16.9375 24.25 C-15.00582602 26.59813734 -15.00582602 26.59813734 -11.5625 26.625 C-7.96171062 26.5436314 -7.96171062 26.5436314 -5.5625 24.625 C-3.6375037 21.81154387 -3.24356215 19.6166837 -2.9375 16.25 C-7.76110189 16.05705592 -11.43396738 16.49252386 -15.9375 18.25 Z " fill="#4D4D4D" transform="translate(252.9375,150.75)"/>
<path d="M0 0 C2.31 0 4.62 0 7 0 C7 8.25 7 16.5 7 25 C12.20734312 22.91706275 12.86672921 22.22853914 15.8125 17.875 C19.34928337 13.18623577 19.34928337 13.18623577 22.29296875 12.34375 C24.5 12.375 24.5 12.375 28 13 C28 13.66 28 14.32 28 15 C27.34 15 26.68 15 26 15 C25.73703125 15.57878906 25.4740625 16.15757812 25.203125 16.75390625 C23.55754297 19.82601557 21.32261947 22.27688625 19.046875 24.90234375 C17.72646509 26.98406213 17.72646509 26.98406213 18.57421875 29.37109375 C20.23293347 32.42949102 22.08549197 35.26174699 24.0625 38.125 C27.89381564 43.68144691 27.89381564 43.68144691 29 47 C24.01409564 47.87472006 24.01409564 47.87472006 21 47 C18.13054593 43.98368411 16.12998268 40.5589584 14 37 C11.69457441 33.39583061 11.42509957 33.10627489 7 32 C7 36.95 7 41.9 7 47 C4.69 47 2.38 47 0 47 C0 31.49 0 15.98 0 0 Z " fill="#505050" transform="translate(199,136)"/>
<path d="M0 0 C4.2923264 3.11404072 6.51820475 6.30461425 8.1875 11.3125 C8.60949679 16.79845821 7.79207866 20.46259491 5.1875 25.3125 C1.56405005 29.49340379 -1.27949585 32.03105509 -6.8359375 32.6484375 C-18.10376214 32.77976413 -18.10376214 32.77976413 -22.8125 28.3125 C-27.37982305 23.2514123 -28.11984392 19.44526172 -28.0234375 12.8125 C-27.59456904 7.72961449 -25.57286427 5.05596729 -22 1.5625 C-14.97414959 -3.39692382 -7.7024685 -3.95040767 0 0 Z M-18.640625 7.625 C-20.93042511 10.92231216 -21.24091518 14.38766419 -20.8125 18.3125 C-18.85414766 22.15926353 -17.39800738 23.92216175 -13.8125 26.3125 C-9.45242093 26.80609386 -7.30789354 26.58771864 -3.4375 24.4375 C-0.69082418 22.21400053 0.03742953 21.52378307 0.4609375 18.10546875 C0.72487774 12.24016078 0.72487774 12.24016078 -2.1875 7.25 C-7.68468641 3.19255289 -13.32833234 2.59831447 -18.640625 7.625 Z " fill="#4E4E4E" transform="translate(185.8125,150.6875)"/>
<path d="M0 0 C3.51870232 3.51870232 3.51870232 3.51870232 3.67602539 7.26806641 C3.67078857 8.38874512 3.66555176 9.50942383 3.66015625 10.6640625 C3.65693359 11.87578125 3.65371094 13.0875 3.65039062 14.3359375 C3.64201172 15.60695312 3.63363281 16.87796875 3.625 18.1875 C3.62048828 19.46625 3.61597656 20.745 3.61132812 22.0625 C3.59951203 25.22921292 3.58303815 28.39583356 3.5625 31.5625 C1.5825 31.5625 -0.3975 31.5625 -2.4375 31.5625 C-2.7675 30.9025 -3.0975 30.2425 -3.4375 29.5625 C-4.4275 30.2225 -5.4175 30.8825 -6.4375 31.5625 C-12.15255641 32.33590507 -16.90648998 32.70325256 -21.625 29.1875 C-24.281427 25.3402609 -24.98181292 23.27987862 -24.4375 18.5625 C-21.75066175 13.99487498 -19.53749985 12.30588231 -14.5 10.6875 C-10.74678573 9.72815824 -7.32837387 9.25532575 -3.4375 9.5625 C-3.7675 7.9125 -4.0975 6.2625 -4.4375 4.5625 C-12.18088636 4.17291465 -12.18088636 4.17291465 -19.4375 6.5625 C-22.4375 2.8125 -22.4375 2.8125 -22.4375 0.5625 C-15.1114788 -3.35606948 -7.04248247 -5.73894605 0 0 Z M-16.4375 18.5625 C-16.4375 20.5425 -16.4375 22.5225 -16.4375 24.5625 C-13.38766004 26.08741998 -10.7951631 25.79812548 -7.4375 25.5625 C-5.41798938 24.62652685 -5.41798938 24.62652685 -4.4375 22.5625 C-3.70708147 18.95226901 -3.70708147 18.95226901 -3.4375 15.5625 C-8.66925837 15.17968841 -11.81552694 16.34395293 -16.4375 18.5625 Z " fill="#4F4F4F" transform="translate(68.4375,151.4375)"/>
<path d="M0 0 C3.28500238 2.54607764 5.22330773 4.95983263 6.16015625 8.98828125 C6.16015625 11.62828125 6.16015625 14.26828125 6.16015625 16.98828125 C-1.42984375 17.31828125 -9.01984375 17.64828125 -16.83984375 17.98828125 C-14.9759844 23.25054753 -14.9759844 23.25054753 -10.83984375 25.98828125 C-5.13261386 26.54059382 -1.85846189 25.99945213 3.16015625 22.98828125 C4.72265625 24.80078125 4.72265625 24.80078125 6.16015625 26.98828125 C5.16015625 29.98828125 5.16015625 29.98828125 2.91015625 31.67578125 C-3.76290017 34.011351 -10.95028848 34.35701796 -17.40234375 31.30078125 C-21.37427919 27.53253481 -24.53672572 24.37504233 -25.04296875 18.71875 C-25.17172692 11.73361938 -24.11682847 7.69604686 -19.52734375 2.23828125 C-13.92258377 -2.45407594 -6.57688875 -3.61659063 0 0 Z M-13.83984375 5.98828125 C-15.67532365 7.322067 -15.67532365 7.322067 -16.83984375 8.98828125 C-16.83984375 9.97828125 -16.83984375 10.96828125 -16.83984375 11.98828125 C-11.55984375 11.98828125 -6.27984375 11.98828125 -0.83984375 11.98828125 C-2.07775809 5.9803368 -2.07775809 5.9803368 -5.65234375 4.48828125 C-9.25313984 3.92345049 -10.70159351 4.2071122 -13.83984375 5.98828125 Z " fill="#4E4E4E" transform="translate(132.83984375,150.01171875)"/>
<path d="M0 0 C2.31 0 4.62 0 7 0 C10.49468255 7.50709584 13.28717063 15.18393833 16 23 C16.3556604 22.00818726 16.3556604 22.00818726 16.71850586 20.99633789 C17.78859637 18.01733807 18.86298824 15.03990779 19.9375 12.0625 C20.31068359 11.02158203 20.68386719 9.98066406 21.06835938 8.90820312 C21.42607422 7.91884766 21.78378906 6.92949219 22.15234375 5.91015625 C22.48226318 4.99371338 22.81218262 4.07727051 23.15209961 3.13305664 C24 1 24 1 25 0 C27.33297433 -0.04092937 29.66705225 -0.04241723 32 0 C31.30622798 4.03254987 30.12537417 7.72729494 28.75 11.578125 C28.3065625 12.82078125 27.863125 14.0634375 27.40625 15.34375 C27.17550781 15.98441406 26.94476563 16.62507813 26.70703125 17.28515625 C25.99779515 19.25612729 25.29541484 21.22944763 24.59375 23.203125 C21.12966721 32.87033279 21.12966721 32.87033279 20 34 C17.32941149 34.14115161 14.67567762 34.04247107 12 34 C0 3.49855908 0 3.49855908 0 0 Z " fill="#545454" transform="translate(75,149)"/>
<path d="M0 0 C2.31 0 4.62 0 7 0 C7 3.3 7 6.6 7 10 C9.64 10 12.28 10 15 10 C15 11.98 15 13.96 15 16 C12.36 16 9.72 16 7 16 C7.33 22.27 7.66 28.54 8 35 C10.64 35.33 13.28 35.66 16 36 C16 38.31 16 40.62 16 43 C9.90793639 43.42014232 6.88058567 43.06715472 2 39 C-0.13604308 35.79593538 -0.24208908 35.00399253 -0.1953125 31.33203125 C-0.18886719 30.43935547 -0.18242188 29.54667969 -0.17578125 28.62695312 C-0.15902344 27.69818359 -0.14226562 26.76941406 -0.125 25.8125 C-0.11597656 24.87212891 -0.10695312 23.93175781 -0.09765625 22.96289062 C-0.07409056 20.64167032 -0.04119116 18.32096356 0 16 C-1.32 16 -2.64 16 -4 16 C-4 14.02 -4 12.04 -4 10 C-2.68 10 -1.36 10 0 10 C0 6.7 0 3.4 0 0 Z " fill="#505050" transform="translate(4,140)"/>
<path d="M0 0 C2.31 0 4.62 0 7 0 C7.33 13.2 7.66 26.4 8 40 C9.32 40 10.64 40 12 40 C12 42.31 12 44.62 12 47 C5.66169154 47.36567164 5.66169154 47.36567164 2.625 45.6875 C0.03828202 43.00129286 -0.12446771 40.45200477 -0.11352539 36.89575195 C-0.11344986 36.07512772 -0.11337433 35.25450348 -0.11329651 34.40901184 C-0.10813522 33.52767075 -0.10297394 32.64632965 -0.09765625 31.73828125 C-0.0962413 30.83248825 -0.09482635 29.92669525 -0.09336853 28.99345398 C-0.08777001 26.09976909 -0.07521781 23.20616151 -0.0625 20.3125 C-0.05748481 18.35091258 -0.05292193 16.38932394 -0.04882812 14.42773438 C-0.03780107 9.61845979 -0.02053747 4.809243 0 0 Z " fill="#505050" transform="translate(144,136)"/>
<path d="M0 0 C2.31 0 4.62 0 7 0 C7.33 1.32 7.66 2.64 8 4 C8.70125 3.34 9.4025 2.68 10.125 2 C13.43460229 -0.30233203 15.06225823 -0.36630156 19 0 C19 2.31 19 4.62 19 7 C17.3603125 7.37125 17.3603125 7.37125 15.6875 7.75 C11.88668091 9.03841325 10.82618485 9.55053973 9 13 C8.20106182 15.72241284 7.83360464 18.28059815 7.68359375 21.109375 C7.64169922 21.86347656 7.59980469 22.61757812 7.55664062 23.39453125 C7.49766602 24.56048828 7.49766602 24.56048828 7.4375 25.75 C7.39431641 26.54277344 7.35113281 27.33554688 7.30664062 28.15234375 C7.20097009 30.10137815 7.10002034 32.05066748 7 34 C4.69 34 2.38 34 0 34 C0 22.78 0 11.56 0 0 Z " fill="#505050" transform="translate(24,149)"/>
<path d="M0 0 C0.33 0.99 0.66 1.98 1 3 C0.34 3 -0.32 3 -1 3 C-1.26296875 3.58523437 -1.5259375 4.17046875 -1.796875 4.7734375 C-3.05390368 7.09975681 -4.43839018 8.70730492 -6.25 10.625 C-10.9452757 15.87034984 -15.61234449 21.96490925 -17 29 C-17.66 29 -18.32 29 -19 29 C-19.83752161 26.04283593 -20.66930031 23.084087 -21.5 20.125 C-21.73847656 19.28324219 -21.97695313 18.44148438 -22.22265625 17.57421875 C-22.44824219 16.76855469 -22.67382812 15.96289062 -22.90625 15.1328125 C-23.11572266 14.38918457 -23.32519531 13.64555664 -23.54101562 12.87939453 C-24 11 -24 11 -24 9 C-23.34 9 -22.68 9 -22 9 C-22 8.34 -22 7.68 -22 7 C-14.7282249 4.05532446 -7.72329019 1.43993546 0 0 Z " fill="#24A2C4" transform="translate(299,123)"/>
<path d="M0 0 C0.99 0.33 1.98 0.66 3 1 C3.70132913 7.70019789 4.11044961 14.26257354 4 21 C2.01837953 17.4473651 0.97562792 13.78019093 -0.125 9.875 C-0.47820312 8.63492188 -0.83140625 7.39484375 -1.1953125 6.1171875 C-2 3 -2 3 -2 1 C-1.34 0.67 -0.68 0.34 0 0 Z " fill="#087EA7" transform="translate(277,131)"/>
<path d="M0 0 C0 0.33 0 0.66 0 1 C-4.95 1.33 -9.9 1.66 -15 2 C-16.04449911 5.13349732 -15.93423645 5.98968256 -15 9 C-15.66 9 -16.32 9 -17 9 C-17.66 7.02 -18.32 5.04 -19 3 C-12.40947838 -1.33091421 -7.55265937 -1.06954871 0 0 Z " fill="#717171" transform="translate(250,149)"/>
<path d="M0 0 C0.45890625 0.33773437 0.9178125 0.67546875 1.390625 1.0234375 C5.98192426 4.36308951 5.98192426 4.36308951 11 7 C10.67 7.66 10.34 8.32 10 9 C5.38 7.35 0.76 5.7 -4 4 C-2.68 2.68 -1.36 1.36 0 0 Z " fill="#47B1E7" transform="translate(283,154)"/>
<path d="M0 0 C2.31 0 4.62 0 7 0 C7 1.65 7 3.3 7 5 C4.125 5.125 4.125 5.125 1 5 C0.34 4.34 -0.32 3.68 -1 3 C-0.67 2.01 -0.34 1.02 0 0 Z " fill="#454545" transform="translate(36,151)"/>
<path d="M0 0 C0.86882812 0.0721875 1.73765625 0.144375 2.6328125 0.21875 C3.78523437 0.3115625 4.93765625 0.404375 6.125 0.5 C7.26195312 0.5928125 8.39890625 0.685625 9.5703125 0.78125 C12.72597149 0.9825221 15.83921165 1.03842904 19 1 C19 1.33 19 1.66 19 2 C12.35938446 4.40192477 6.70903982 4.23634661 0 2 C0 1.34 0 0.68 0 0 Z " fill="#78C4ED" transform="translate(241,141)"/>
<path d="M0 0 C0.99 0.33 1.98 0.66 3 1 C3.33 5.29 3.66 9.58 4 14 C1.01520806 9.52281208 0 5.36175907 0 0 Z " fill="#3EAEE7" transform="translate(262,127)"/>
<path d="M0 0 C0.33 0.99 0.66 1.98 1 3 C0.34 3 -0.32 3 -1 3 C-1.33 3.99 -1.66 4.98 -2 6 C-2.33 5.01 -2.66 4.02 -3 3 C-7.455 3.495 -7.455 3.495 -12 4 C-9.14521674 2.09681116 -7.58058692 1.5380901 -4.3125 0.875 C-3.50425781 0.70742187 -2.69601562 0.53984375 -1.86328125 0.3671875 C-1.24839844 0.24601562 -0.63351562 0.12484375 0 0 Z " fill="#59B7D2" transform="translate(299,123)"/>
<path d="M0 0 C0.91007813 0.00902344 1.82015625 0.01804688 2.7578125 0.02734375 C3.45648438 0.03894531 4.15515625 0.05054688 4.875 0.0625 C5.205 0.7225 5.535 1.3825 5.875 2.0625 C5.28332031 2.02769531 4.69164062 1.99289063 4.08203125 1.95703125 C-0.8851076 1.78686825 -4.03228689 1.89394791 -8.125 5.0625 C-7.75 3.125 -7.75 3.125 -7.125 1.0625 C-4.60024538 -0.19987731 -2.81299534 -0.03606404 0 0 Z " fill="#6C6C6C" transform="translate(175.125,153.9375)"/>
<path d="M0 0 C0.66 0.33 1.32 0.66 2 1 C0.95125002 3.62187494 0.35068687 4.79371361 -2.125 6.25 C-2.74375 6.4975 -3.3625 6.745 -4 7 C-4 4 -4 4 -2 1.8125 C-1.34 1.214375 -0.68 0.61625 0 0 Z " fill="#646464" transform="translate(165,151)"/>
<path d="M0 0 C2.31 0 4.62 0 7 0 C6.67 1.65 6.34 3.3 6 5 C5.34 5 4.68 5 4 5 C4 4.01 4 3.02 4 2 C2.68 2.33 1.36 2.66 0 3 C0 2.01 0 1.02 0 0 Z " fill="#6A6A6A" transform="translate(100,149)"/>
<path d="M0 0 C1.32 0.66 2.64 1.32 4 2 C4 2.66 4 3.32 4 4 C1.36 4 -1.28 4 -4 4 C-4 3.34 -4 2.68 -4 2 C-2.68 2 -1.36 2 0 2 C0 1.34 0 0.68 0 0 Z " fill="#6B6B6B" transform="translate(224,179)"/>
<path d="M0 0 C0.309375 0.639375 0.61875 1.27875 0.9375 1.9375 C1.8345163 3.93610821 1.8345163 3.93610821 3 5 C5.32817964 5.36760731 7.6618385 5.70241581 10 6 C10 6.33 10 6.66 10 7 C8.52093108 7.02689216 7.04172517 7.04634621 5.5625 7.0625 C4.32693359 7.07990234 4.32693359 7.07990234 3.06640625 7.09765625 C1 7 1 7 0 6 C-0.04080783 4.00041636 -0.04254356 1.99954746 0 0 Z " fill="#727272" transform="translate(235,171)"/>
<path d="M0 0 C3.465 1.485 3.465 1.485 7 3 C6.67 3.66 6.34 4.32 6 5 C3.36 4.01 0.72 3.02 -2 2 C-1.34 1.34 -0.68 0.68 0 0 Z " fill="#62BDEB" transform="translate(287,158)"/>
</svg>
